# xmcd
#
# Track frame offsets:
#	150
#	14010
#	31902
#	48990
#	64875
#	78137
#	92871
#	107087
#	123134
#	139254
#	153937
#	165739
#	178304
#	192160
#
# Disc length: 2772 seconds
#
# Revision: 0
# Processed by: cddbd v1.5.1PL2 Copyright (c) Steve Scherf et al.
# Submitted via: EasyCDDAExtractor 9.0.0.1
#
DISCID=b70ad20e
DTITLE=Various Artist - T‰hden T‰hden
DYEAR=1900
DGENRE=
TTITLE0=Mua vied‰ saat - Mia Pihkala
TTITLE1=Tahdon kaiken - Mari Varjovirta
TTITLE2=Mennytt‰ miest‰ - Markus Huitsi
TTITLE3=N‰pit irti - Sanna Halme
TTITLE4=Raketilla kuuhun - Kati Sorsa
TTITLE5=Tied‰n kuitenkin - Erkki Yli-Kullas
TTITLE6=Laulun taika - Terhi Sarvanto
TTITLE7=Haaveita vain - Maija Kosonen
TTITLE8=Tulit takaisin - Sari Hellsten
TTITLE9=Ei se el‰m‰‰ helpoksi tee - Maritta Laaksonen
TTITLE10=Tie unelmiin - Elisa Salo
TTITLE11=Kappale 12 - Anne Kasittula
TTITLE12=Tuuleen - Jarko Kaivola
TTITLE13=Tim - t‰hden t‰hden
EXTD=
EXTT0=
EXTT1=
EXTT2=
EXTT3=
EXTT4=
EXTT5=
EXTT6=
EXTT7=
EXTT8=
EXTT9=
EXTT10=
EXTT11=
EXTT12=
EXTT13=
PLAYORDER=
